<mxfile host="app.diagrams.net" modified="2021-08-06T08:05:55.202Z" agent="5.0 (Macintosh; Intel Mac OS X 10_14_6) AppleWebKit/537.36 (KHTML, like Gecko) coc_coc_browser/96.0.230 Chrome/90.0.4430.230 Safari/537.36" etag="EF8Ahe-q-TC9g4nA3u21" version="14.9.3" type="github" pages="2">
  <diagram name="Page-1" id="c7488fd3-1785-93aa-aadb-54a6760d102a">
    <mxGraphModel dx="873" dy="494" grid="1" gridSize="10" guides="1" tooltips="1" connect="1" arrows="1" fold="1" page="1" pageScale="1" pageWidth="1100" pageHeight="850" background="none" math="0" shadow="0">
      <root>
        <mxCell id="0" />
        <mxCell id="1" parent="0" />
        <mxCell id="2b4e8129b02d487f-1" value="Pool" style="swimlane;html=1;childLayout=stackLayout;horizontal=1;startSize=20;horizontalStack=0;rounded=0;shadow=0;labelBackgroundColor=none;strokeWidth=1;fontFamily=Verdana;fontSize=8;align=center;" parent="1" vertex="1">
          <mxGeometry x="180" y="70" width="680" height="470" as="geometry" />
        </mxCell>
        <mxCell id="2b4e8129b02d487f-2" value="Lane 1" style="swimlane;html=1;startSize=20;horizontal=0;" parent="2b4e8129b02d487f-1" vertex="1">
          <mxGeometry y="20" width="680" height="150" as="geometry" />
        </mxCell>
        <mxCell id="2b4e8129b02d487f-18" style="edgeStyle=orthogonalEdgeStyle;rounded=0;html=1;labelBackgroundColor=none;startArrow=none;startFill=0;startSize=5;endArrow=classicThin;endFill=1;endSize=5;jettySize=auto;orthogonalLoop=1;strokeWidth=1;fontFamily=Verdana;fontSize=8" parent="2b4e8129b02d487f-2" source="2b4e8129b02d487f-5" target="2b4e8129b02d487f-6" edge="1">
          <mxGeometry relative="1" as="geometry" />
        </mxCell>
        <mxCell id="2b4e8129b02d487f-5" value="" style="ellipse;whiteSpace=wrap;html=1;rounded=0;shadow=0;labelBackgroundColor=none;strokeWidth=1;fontFamily=Verdana;fontSize=8;align=center;" parent="2b4e8129b02d487f-2" vertex="1">
          <mxGeometry x="60" y="60" width="30" height="30" as="geometry" />
        </mxCell>
        <mxCell id="2b4e8129b02d487f-6" value="" style="rounded=1;whiteSpace=wrap;html=1;shadow=0;labelBackgroundColor=none;strokeWidth=1;fontFamily=Verdana;fontSize=8;align=center;" parent="2b4e8129b02d487f-2" vertex="1">
          <mxGeometry x="120" y="56.49999999999997" width="70" height="37" as="geometry" />
        </mxCell>
        <mxCell id="2b4e8129b02d487f-20" style="edgeStyle=orthogonalEdgeStyle;rounded=0;html=1;labelBackgroundColor=none;startArrow=none;startFill=0;startSize=5;endArrow=classicThin;endFill=1;endSize=5;jettySize=auto;orthogonalLoop=1;strokeWidth=1;fontFamily=Verdana;fontSize=8" parent="2b4e8129b02d487f-2" source="2b4e8129b02d487f-7" target="2b4e8129b02d487f-8" edge="1">
          <mxGeometry relative="1" as="geometry" />
        </mxCell>
        <mxCell id="2b4e8129b02d487f-7" value="" style="rounded=1;whiteSpace=wrap;html=1;shadow=0;labelBackgroundColor=none;strokeWidth=1;fontFamily=Verdana;fontSize=8;align=center;" parent="2b4e8129b02d487f-2" vertex="1">
          <mxGeometry x="230" y="56.49999999999997" width="70" height="37" as="geometry" />
        </mxCell>
        <mxCell id="2b4e8129b02d487f-8" value="" style="ellipse;whiteSpace=wrap;html=1;rounded=0;shadow=0;labelBackgroundColor=none;strokeWidth=2;fontFamily=Verdana;fontSize=8;align=center;" parent="2b4e8129b02d487f-2" vertex="1">
          <mxGeometry x="330" y="60" width="30" height="30" as="geometry" />
        </mxCell>
        <mxCell id="2b4e8129b02d487f-22" style="edgeStyle=orthogonalEdgeStyle;rounded=0;html=1;entryX=0;entryY=0.5;labelBackgroundColor=none;startArrow=none;startFill=0;startSize=5;endArrow=classicThin;endFill=1;endSize=5;jettySize=auto;orthogonalLoop=1;strokeWidth=1;fontFamily=Verdana;fontSize=8" parent="2b4e8129b02d487f-2" source="2b4e8129b02d487f-9" target="2b4e8129b02d487f-10" edge="1">
          <mxGeometry relative="1" as="geometry" />
        </mxCell>
        <mxCell id="2b4e8129b02d487f-9" value="" style="rounded=1;whiteSpace=wrap;html=1;shadow=0;labelBackgroundColor=none;strokeWidth=1;fontFamily=Verdana;fontSize=8;align=center;" parent="2b4e8129b02d487f-2" vertex="1">
          <mxGeometry x="420" y="56.49999999999997" width="70" height="37" as="geometry" />
        </mxCell>
        <mxCell id="2b4e8129b02d487f-23" style="edgeStyle=orthogonalEdgeStyle;rounded=0;html=1;labelBackgroundColor=none;startArrow=none;startFill=0;startSize=5;endArrow=classicThin;endFill=1;endSize=5;jettySize=auto;orthogonalLoop=1;strokeWidth=1;fontFamily=Verdana;fontSize=8" parent="2b4e8129b02d487f-2" source="2b4e8129b02d487f-10" target="2b4e8129b02d487f-11" edge="1">
          <mxGeometry relative="1" as="geometry" />
        </mxCell>
        <mxCell id="2b4e8129b02d487f-10" value="" style="shape=mxgraph.bpmn.shape;html=1;verticalLabelPosition=bottom;labelBackgroundColor=#ffffff;verticalAlign=top;perimeter=rhombusPerimeter;background=gateway;outline=none;symbol=parallelGw;rounded=1;shadow=0;strokeWidth=1;fontFamily=Verdana;fontSize=8;align=center;" parent="2b4e8129b02d487f-2" vertex="1">
          <mxGeometry x="550" y="60" width="30" height="30" as="geometry" />
        </mxCell>
        <mxCell id="2b4e8129b02d487f-11" value="" style="ellipse;whiteSpace=wrap;html=1;rounded=0;shadow=0;labelBackgroundColor=none;strokeWidth=2;fontFamily=Verdana;fontSize=8;align=center;" parent="2b4e8129b02d487f-2" vertex="1">
          <mxGeometry x="610" y="60" width="30" height="30" as="geometry" />
        </mxCell>
        <mxCell id="2b4e8129b02d487f-3" value="Lane 2" style="swimlane;html=1;startSize=20;horizontal=0;" parent="2b4e8129b02d487f-1" vertex="1">
          <mxGeometry y="170" width="680" height="150" as="geometry" />
        </mxCell>
        <mxCell id="2b4e8129b02d487f-26" style="edgeStyle=orthogonalEdgeStyle;rounded=0;html=1;labelBackgroundColor=none;startArrow=none;startFill=0;startSize=5;endArrow=classicThin;endFill=1;endSize=5;jettySize=auto;orthogonalLoop=1;strokeWidth=1;fontFamily=Verdana;fontSize=8" parent="2b4e8129b02d487f-3" source="2b4e8129b02d487f-12" target="2b4e8129b02d487f-13" edge="1">
          <mxGeometry relative="1" as="geometry" />
        </mxCell>
        <mxCell id="2b4e8129b02d487f-12" value="" style="rounded=1;whiteSpace=wrap;html=1;shadow=0;labelBackgroundColor=none;strokeWidth=1;fontFamily=Verdana;fontSize=8;align=center;" parent="2b4e8129b02d487f-3" vertex="1">
          <mxGeometry x="120" y="49.99999999999996" width="70" height="37" as="geometry" />
        </mxCell>
        <mxCell id="2b4e8129b02d487f-13" value="" style="strokeWidth=1;html=1;shape=mxgraph.flowchart.decision;whiteSpace=wrap;rounded=1;shadow=0;labelBackgroundColor=none;fontFamily=Verdana;fontSize=8;align=center;" parent="2b4e8129b02d487f-3" vertex="1">
          <mxGeometry x="250" y="53.499999999999915" width="30" height="30" as="geometry" />
        </mxCell>
        <mxCell id="2b4e8129b02d487f-4" value="Lane 3" style="swimlane;html=1;startSize=20;horizontal=0;" parent="2b4e8129b02d487f-1" vertex="1">
          <mxGeometry y="320" width="680" height="150" as="geometry" />
        </mxCell>
        <mxCell id="2b4e8129b02d487f-28" style="edgeStyle=orthogonalEdgeStyle;rounded=0;html=1;labelBackgroundColor=none;startArrow=none;startFill=0;startSize=5;endArrow=classicThin;endFill=1;endSize=5;jettySize=auto;orthogonalLoop=1;strokeWidth=1;fontFamily=Verdana;fontSize=8;" parent="2b4e8129b02d487f-4" source="2b4e8129b02d487f-14" target="2b4e8129b02d487f-15" edge="1">
          <mxGeometry relative="1" as="geometry" />
        </mxCell>
        <mxCell id="2b4e8129b02d487f-14" value="" style="rounded=1;whiteSpace=wrap;html=1;shadow=0;labelBackgroundColor=none;strokeWidth=1;fontFamily=Verdana;fontSize=8;align=center;" parent="2b4e8129b02d487f-4" vertex="1">
          <mxGeometry x="230" y="57.00000000000003" width="70" height="37" as="geometry" />
        </mxCell>
        <mxCell id="2b4e8129b02d487f-29" value="Yes" style="edgeStyle=orthogonalEdgeStyle;rounded=0;html=1;entryX=0;entryY=0.5;labelBackgroundColor=none;startArrow=none;startFill=0;startSize=5;endArrow=classicThin;endFill=1;endSize=5;jettySize=auto;orthogonalLoop=1;strokeWidth=1;fontFamily=Verdana;fontSize=8" parent="2b4e8129b02d487f-4" source="2b4e8129b02d487f-15" target="2b4e8129b02d487f-16" edge="1">
          <mxGeometry x="-0.5006" y="6" relative="1" as="geometry">
            <mxPoint as="offset" />
          </mxGeometry>
        </mxCell>
        <mxCell id="2b4e8129b02d487f-15" value="" style="strokeWidth=1;html=1;shape=mxgraph.flowchart.decision;whiteSpace=wrap;rounded=1;shadow=0;labelBackgroundColor=none;fontFamily=Verdana;fontSize=8;align=center;" parent="2b4e8129b02d487f-4" vertex="1">
          <mxGeometry x="330" y="60.500000000000064" width="30" height="30" as="geometry" />
        </mxCell>
        <mxCell id="2b4e8129b02d487f-30" style="edgeStyle=orthogonalEdgeStyle;rounded=0;html=1;labelBackgroundColor=none;startArrow=none;startFill=0;startSize=5;endArrow=classicThin;endFill=1;endSize=5;jettySize=auto;orthogonalLoop=1;strokeColor=#000000;strokeWidth=1;fontFamily=Verdana;fontSize=8;fontColor=#000000;" parent="2b4e8129b02d487f-4" source="2b4e8129b02d487f-16" target="2b4e8129b02d487f-17" edge="1">
          <mxGeometry relative="1" as="geometry" />
        </mxCell>
        <mxCell id="2b4e8129b02d487f-16" value="" style="shape=mxgraph.bpmn.shape;html=1;verticalLabelPosition=bottom;labelBackgroundColor=#ffffff;verticalAlign=top;perimeter=rhombusPerimeter;background=gateway;outline=none;symbol=parallelGw;rounded=1;shadow=0;strokeWidth=1;fontFamily=Verdana;fontSize=8;align=center;" parent="2b4e8129b02d487f-4" vertex="1">
          <mxGeometry x="440" y="60.500000000000064" width="30" height="30" as="geometry" />
        </mxCell>
        <mxCell id="2b4e8129b02d487f-17" value="" style="rounded=1;whiteSpace=wrap;html=1;shadow=0;labelBackgroundColor=none;strokeWidth=1;fontFamily=Verdana;fontSize=8;align=center;" parent="2b4e8129b02d487f-4" vertex="1">
          <mxGeometry x="530" y="57" width="70" height="37" as="geometry" />
        </mxCell>
        <mxCell id="2b4e8129b02d487f-24" style="edgeStyle=orthogonalEdgeStyle;rounded=0;html=1;labelBackgroundColor=none;startArrow=none;startFill=0;startSize=5;endArrow=classicThin;endFill=1;endSize=5;jettySize=auto;orthogonalLoop=1;strokeWidth=1;fontFamily=Verdana;fontSize=8" parent="2b4e8129b02d487f-1" source="2b4e8129b02d487f-6" target="2b4e8129b02d487f-12" edge="1">
          <mxGeometry relative="1" as="geometry" />
        </mxCell>
        <mxCell id="2b4e8129b02d487f-25" value="No" style="edgeStyle=orthogonalEdgeStyle;rounded=0;html=1;labelBackgroundColor=none;startArrow=none;startFill=0;startSize=5;endArrow=classicThin;endFill=1;endSize=5;jettySize=auto;orthogonalLoop=1;strokeWidth=1;fontFamily=Verdana;fontSize=8" parent="2b4e8129b02d487f-1" source="2b4e8129b02d487f-13" target="2b4e8129b02d487f-7" edge="1">
          <mxGeometry x="-0.9364" y="-15" relative="1" as="geometry">
            <mxPoint as="offset" />
          </mxGeometry>
        </mxCell>
        <mxCell id="2b4e8129b02d487f-27" value="Yes" style="edgeStyle=orthogonalEdgeStyle;rounded=0;html=1;labelBackgroundColor=none;startArrow=none;startFill=0;startSize=5;endArrow=classicThin;endFill=1;endSize=5;jettySize=auto;orthogonalLoop=1;strokeWidth=1;fontFamily=Verdana;fontSize=8" parent="2b4e8129b02d487f-1" source="2b4e8129b02d487f-13" target="2b4e8129b02d487f-14" edge="1">
          <mxGeometry x="-0.8947" y="15" relative="1" as="geometry">
            <mxPoint as="offset" />
          </mxGeometry>
        </mxCell>
        <mxCell id="2b4e8129b02d487f-31" style="edgeStyle=orthogonalEdgeStyle;rounded=0;html=1;entryX=0.5;entryY=1;labelBackgroundColor=none;startArrow=none;startFill=0;startSize=5;endArrow=classicThin;endFill=1;endSize=5;jettySize=auto;orthogonalLoop=1;strokeWidth=1;fontFamily=Verdana;fontSize=8" parent="2b4e8129b02d487f-1" source="2b4e8129b02d487f-17" target="2b4e8129b02d487f-10" edge="1">
          <mxGeometry relative="1" as="geometry" />
        </mxCell>
        <mxCell id="2b4e8129b02d487f-32" value="No" style="edgeStyle=orthogonalEdgeStyle;rounded=0;html=1;labelBackgroundColor=none;startArrow=none;startFill=0;startSize=5;endArrow=classicThin;endFill=1;endSize=5;jettySize=auto;orthogonalLoop=1;strokeWidth=1;fontFamily=Verdana;fontSize=8" parent="2b4e8129b02d487f-1" source="2b4e8129b02d487f-15" target="2b4e8129b02d487f-12" edge="1">
          <mxGeometry x="-0.9529" y="15" relative="1" as="geometry">
            <Array as="points">
              <mxPoint x="345" y="440" />
              <mxPoint x="155" y="440" />
            </Array>
            <mxPoint as="offset" />
          </mxGeometry>
        </mxCell>
        <mxCell id="2b4e8129b02d487f-33" style="edgeStyle=orthogonalEdgeStyle;rounded=0;html=1;labelBackgroundColor=none;startArrow=none;startFill=0;startSize=5;endArrow=classicThin;endFill=1;endSize=5;jettySize=auto;orthogonalLoop=1;strokeWidth=1;fontFamily=Verdana;fontSize=8" parent="2b4e8129b02d487f-1" source="2b4e8129b02d487f-16" target="2b4e8129b02d487f-9" edge="1">
          <mxGeometry relative="1" as="geometry" />
        </mxCell>
      </root>
    </mxGraphModel>
  </diagram>
  <diagram id="kP4knS4h50Ho0ba9p5c6" name="Page-2">
    <mxGraphModel dx="1060" dy="600" grid="1" gridSize="10" guides="1" tooltips="1" connect="1" arrows="1" fold="1" page="1" pageScale="1" pageWidth="1200" pageHeight="3500" math="0" shadow="0">
      <root>
        <mxCell id="rjYweRCu03pta9ILM9iG-0" />
        <mxCell id="rjYweRCu03pta9ILM9iG-1" parent="rjYweRCu03pta9ILM9iG-0" />
        <mxCell id="rjYweRCu03pta9ILM9iG-4" value="" style="edgeStyle=orthogonalEdgeStyle;rounded=0;orthogonalLoop=1;jettySize=auto;html=1;" edge="1" parent="rjYweRCu03pta9ILM9iG-1" source="rjYweRCu03pta9ILM9iG-2" target="rjYweRCu03pta9ILM9iG-3">
          <mxGeometry relative="1" as="geometry" />
        </mxCell>
        <mxCell id="rjYweRCu03pta9ILM9iG-2" value="Actor" style="shape=umlActor;verticalLabelPosition=bottom;verticalAlign=top;html=1;outlineConnect=0;" vertex="1" parent="rjYweRCu03pta9ILM9iG-1">
          <mxGeometry x="160" y="200" width="30" height="60" as="geometry" />
        </mxCell>
        <mxCell id="rjYweRCu03pta9ILM9iG-6" value="" style="edgeStyle=orthogonalEdgeStyle;rounded=0;orthogonalLoop=1;jettySize=auto;html=1;" edge="1" parent="rjYweRCu03pta9ILM9iG-1" source="rjYweRCu03pta9ILM9iG-3" target="rjYweRCu03pta9ILM9iG-5">
          <mxGeometry relative="1" as="geometry" />
        </mxCell>
        <mxCell id="rjYweRCu03pta9ILM9iG-3" value="Yêu cầu MTK" style="whiteSpace=wrap;html=1;verticalAlign=middle;align=center;" vertex="1" parent="rjYweRCu03pta9ILM9iG-1">
          <mxGeometry x="270" y="200" width="120" height="60" as="geometry" />
        </mxCell>
        <mxCell id="rjYweRCu03pta9ILM9iG-8" value="" style="edgeStyle=orthogonalEdgeStyle;rounded=0;orthogonalLoop=1;jettySize=auto;html=1;" edge="1" parent="rjYweRCu03pta9ILM9iG-1" source="rjYweRCu03pta9ILM9iG-5" target="rjYweRCu03pta9ILM9iG-7">
          <mxGeometry relative="1" as="geometry" />
        </mxCell>
        <mxCell id="rjYweRCu03pta9ILM9iG-5" value="Nhập thông tin tài khoản" style="whiteSpace=wrap;html=1;" vertex="1" parent="rjYweRCu03pta9ILM9iG-1">
          <mxGeometry x="470" y="200" width="120" height="60" as="geometry" />
        </mxCell>
        <mxCell id="rjYweRCu03pta9ILM9iG-10" value="" style="edgeStyle=orthogonalEdgeStyle;rounded=0;orthogonalLoop=1;jettySize=auto;html=1;" edge="1" parent="rjYweRCu03pta9ILM9iG-1" source="rjYweRCu03pta9ILM9iG-7" target="rjYweRCu03pta9ILM9iG-9">
          <mxGeometry relative="1" as="geometry" />
        </mxCell>
        <mxCell id="rjYweRCu03pta9ILM9iG-7" value="Xác thực Email/SĐT" style="whiteSpace=wrap;html=1;" vertex="1" parent="rjYweRCu03pta9ILM9iG-1">
          <mxGeometry x="670" y="200" width="120" height="60" as="geometry" />
        </mxCell>
        <mxCell id="rjYweRCu03pta9ILM9iG-12" value="" style="edgeStyle=orthogonalEdgeStyle;rounded=0;orthogonalLoop=1;jettySize=auto;html=1;" edge="1" parent="rjYweRCu03pta9ILM9iG-1" source="rjYweRCu03pta9ILM9iG-9" target="rjYweRCu03pta9ILM9iG-11">
          <mxGeometry relative="1" as="geometry" />
        </mxCell>
        <mxCell id="rjYweRCu03pta9ILM9iG-9" value="Nhập thông tin định danh" style="whiteSpace=wrap;html=1;" vertex="1" parent="rjYweRCu03pta9ILM9iG-1">
          <mxGeometry x="870" y="200" width="120" height="60" as="geometry" />
        </mxCell>
        <mxCell id="rjYweRCu03pta9ILM9iG-14" value="" style="edgeStyle=orthogonalEdgeStyle;rounded=0;orthogonalLoop=1;jettySize=auto;html=1;" edge="1" parent="rjYweRCu03pta9ILM9iG-1" source="rjYweRCu03pta9ILM9iG-11" target="rjYweRCu03pta9ILM9iG-13">
          <mxGeometry relative="1" as="geometry" />
        </mxCell>
        <mxCell id="rjYweRCu03pta9ILM9iG-11" value="Kiểm tra thông tin định danh" style="whiteSpace=wrap;html=1;" vertex="1" parent="rjYweRCu03pta9ILM9iG-1">
          <mxGeometry x="1070" y="200" width="120" height="60" as="geometry" />
        </mxCell>
        <mxCell id="rjYweRCu03pta9ILM9iG-16" value="" style="edgeStyle=orthogonalEdgeStyle;rounded=0;orthogonalLoop=1;jettySize=auto;html=1;" edge="1" parent="rjYweRCu03pta9ILM9iG-1" source="rjYweRCu03pta9ILM9iG-13" target="rjYweRCu03pta9ILM9iG-15">
          <mxGeometry relative="1" as="geometry" />
        </mxCell>
        <mxCell id="rjYweRCu03pta9ILM9iG-13" value="Submit" style="whiteSpace=wrap;html=1;" vertex="1" parent="rjYweRCu03pta9ILM9iG-1">
          <mxGeometry x="1240" y="200" width="120" height="60" as="geometry" />
        </mxCell>
        <mxCell id="rjYweRCu03pta9ILM9iG-18" value="" style="edgeStyle=orthogonalEdgeStyle;rounded=0;orthogonalLoop=1;jettySize=auto;html=1;" edge="1" parent="rjYweRCu03pta9ILM9iG-1" source="rjYweRCu03pta9ILM9iG-15" target="rjYweRCu03pta9ILM9iG-17">
          <mxGeometry relative="1" as="geometry" />
        </mxCell>
        <mxCell id="rjYweRCu03pta9ILM9iG-15" value="Đăng nhập" style="whiteSpace=wrap;html=1;" vertex="1" parent="rjYweRCu03pta9ILM9iG-1">
          <mxGeometry x="1440" y="200" width="120" height="60" as="geometry" />
        </mxCell>
        <mxCell id="rjYweRCu03pta9ILM9iG-20" value="" style="edgeStyle=orthogonalEdgeStyle;rounded=0;orthogonalLoop=1;jettySize=auto;html=1;fontSize=42;exitX=0.5;exitY=0;exitDx=0;exitDy=0;entryX=0;entryY=0.5;entryDx=0;entryDy=0;" edge="1" parent="rjYweRCu03pta9ILM9iG-1" source="rjYweRCu03pta9ILM9iG-17" target="rjYweRCu03pta9ILM9iG-19">
          <mxGeometry relative="1" as="geometry" />
        </mxCell>
        <mxCell id="rjYweRCu03pta9ILM9iG-17" value="&lt;font style=&quot;font-size: 42px;&quot;&gt;x&lt;/font&gt;" style="rhombus;whiteSpace=wrap;html=1;verticalAlign=middle;fontSize=42;" vertex="1" parent="rjYweRCu03pta9ILM9iG-1">
          <mxGeometry x="1650" y="190" width="80" height="80" as="geometry" />
        </mxCell>
        <mxCell id="rjYweRCu03pta9ILM9iG-19" value="" style="whiteSpace=wrap;html=1;fontSize=12;" vertex="1" parent="rjYweRCu03pta9ILM9iG-1">
          <mxGeometry x="1800" y="80" width="120" height="60" as="geometry" />
        </mxCell>
        <mxCell id="rjYweRCu03pta9ILM9iG-24" value="" style="edgeStyle=orthogonalEdgeStyle;rounded=0;orthogonalLoop=1;jettySize=auto;html=1;fontSize=12;" edge="1" parent="rjYweRCu03pta9ILM9iG-1" source="rjYweRCu03pta9ILM9iG-22" target="rjYweRCu03pta9ILM9iG-23">
          <mxGeometry relative="1" as="geometry" />
        </mxCell>
        <mxCell id="rjYweRCu03pta9ILM9iG-22" value="Yêu cầu MTK" style="ellipse;whiteSpace=wrap;html=1;aspect=fixed;fontSize=12;align=center;verticalAlign=middle;" vertex="1" parent="rjYweRCu03pta9ILM9iG-1">
          <mxGeometry x="135" y="420" width="80" height="80" as="geometry" />
        </mxCell>
        <mxCell id="rjYweRCu03pta9ILM9iG-26" value="" style="edgeStyle=orthogonalEdgeStyle;rounded=0;orthogonalLoop=1;jettySize=auto;html=1;fontSize=12;" edge="1" parent="rjYweRCu03pta9ILM9iG-1" source="rjYweRCu03pta9ILM9iG-23" target="rjYweRCu03pta9ILM9iG-25">
          <mxGeometry relative="1" as="geometry" />
        </mxCell>
        <mxCell id="rjYweRCu03pta9ILM9iG-23" value="Nhập thông tin tài khoản" style="whiteSpace=wrap;html=1;" vertex="1" parent="rjYweRCu03pta9ILM9iG-1">
          <mxGeometry x="320" y="430" width="120" height="60" as="geometry" />
        </mxCell>
        <mxCell id="rjYweRCu03pta9ILM9iG-25" value="Xác thực OTP" style="whiteSpace=wrap;html=1;" vertex="1" parent="rjYweRCu03pta9ILM9iG-1">
          <mxGeometry x="520" y="430" width="120" height="60" as="geometry" />
        </mxCell>
      </root>
    </mxGraphModel>
  </diagram>
</mxfile>
